# xmcd
#
# Track frame offsets:
# 150
# 17187
# 34282
# 52534
# 71546
# 87859
# 103629
# 119168
# 135467
# 152911
# 171060
# 186101
# 202108
# 219513
#
# Disc length: 3137 seconds
#
#
# Revision: 0
# Processed by: cddbd v1.5.2PL0 Copyright (c) Steve Scherf et al.
# Submitted via: FreeRIP 2.951 
#
DISCID=c30c3f0e
DTITLE=Gustavo Lins - Vida Real
DYEAR=2008
DGENRE=Samba
TTITLE0=Flash Back
TTITLE1=Sol e Luar
TTITLE2=Essa Noite
TTITLE3=Liberdade
TTITLE4=Dei Mole
TTITLE5=Vida Real
TTITLE6=Garotos II
TTITLE7=Passou
TTITLE8=Tanto Amor Pra Dar
TTITLE9=O Grande Amor da Minha Vida
TTITLE10=Me Deixa
TTITLE11=Menina Mulher
TTITLE12=Eu Entendo
TTITLE13=Salve o Nosso Amor
EXTD=
EXTT0=
EXTT1=
EXTT2=
EXTT3=
EXTT4=
EXTT5=
EXTT6=
EXTT7=
EXTT8=
EXTT9=
EXTT10=
EXTT11=
EXTT12=
EXTT13=
PLAYORDER=
